<svg id="Lag_1" data-name="Lag 1" xmlns="http://www.w3.org/2000/svg" viewBox="0 0 80.14 80.08"><defs><style>.cls-1{fill:#999;}.cls-2{fill:#4d4d4d;}.cls-3{fill:#8b5e3c;}.cls-4{fill:#bf8144;}.cls-5{fill:#603913;}.cls-6{fill:#b3b3b3;}.cls-7{fill:#e6e6e6;}</style></defs><title>Tegnebræt 1</title><path class="cls-1" d="M48.13.84A40,40,0,1,1,.93,32,40,40,0,0,1,48.13.84"/><path class="cls-2" d="M80.13,39.84a34,34,0,0,1-.8,6.3A40.06,40.06,0,0,1,0,38.34,40,40,0,0,0,79.23,48,38.84,38.84,0,0,0,80.13,39.84Z"/><path class="cls-3" d="M72.23,46.54a32.81,32.81,0,1,1-25.6-38.7A32.84,32.84,0,0,1,72.23,46.54Z"/><path class="cls-4" d="M45.33,10.84l-1.6,16s3.1.8,4,2.2a9,9,0,0,0,1.8,2.1l.2-18.5Z"/><path class="cls-4" d="M52.53,13.14l-.4,19.3a23,23,0,0,1,.9,11.2c-1.1,6.1-3.7,7.9-3.7,7.9l-1.7,18.4s4.3-.3,5.6-4.3,3-32.2,3.2-34,.6-16.4.6-16.4Z"/><path class="cls-4" d="M58.83,16.64s3.1,2.5,3.6,4-3.1,41.9-3.1,41.9l-3.6,3.7Z"/><path class="cls-4" d="M64.63,22.54s2.6,3.1,2.8,4.8-2.9,19.3-2.9,20.3-2.6,3.4-2.6,3.4Z"/><path class="cls-4" d="M62.13,52.14l2.4-2.6.7-1-1.7,11.7s-1.5,2.6-2.4,2.7S62.13,52.14,62.13,52.14Z"/><path class="cls-4" d="M68.43,30.44s-1.3,16.4-1.6,17.9-1,9.1-1,9.1a30.37,30.37,0,0,0,4.5-13.5A32.19,32.19,0,0,0,68.43,30.44Z"/><path class="cls-4" d="M46.23,53.54a31.73,31.73,0,0,1-4.5,1.3c-1.8.3-.7,15.2-.7,15.2s3.4.2,3.9-.6S46.23,53.54,46.23,53.54Z"/><path class="cls-5" d="M7.93,35.34a32.83,32.83,0,0,1,65,6.3A32.8,32.8,0,0,0,8,33.54a31.41,31.41,0,0,0-.7,6.8A42.61,42.61,0,0,1,7.93,35.34Z"/><path class="cls-6" d="M51.33,42.34a11.53,11.53,0,1,1-9-13.6A11.6,11.6,0,0,1,51.33,42.34Z"/><circle class="cls-2" cx="40.63" cy="41.34" r="11.5"/><path class="cls-6" d="M51.33,42.34a11.53,11.53,0,1,1-9-13.6A11.6,11.6,0,0,1,51.33,42.34Z"/><circle class="cls-2" cx="40.53" cy="40.94" r="4.3"/><circle class="cls-7" cx="40.13" cy="40.04" r="4.3"/><circle class="cls-2" cx="46.93" cy="4.84" r="2.1"/><circle class="cls-7" cx="46.73" cy="4.34" r="2.1"/><path class="cls-2" d="M61.63,11.44a2.09,2.09,0,1,1-.6-2.9A2,2,0,0,1,61.63,11.44Z"/><path class="cls-7" d="M61.63,10.84a2.1,2.1,0,0,1-2.9.6,2,2,0,0,1-.5-2.9,2.12,2.12,0,0,1,2.9-.6A2.09,2.09,0,0,1,61.63,10.84Z"/><path class="cls-2" d="M70.93,22a2.09,2.09,0,1,1,.6-2.9A2,2,0,0,1,70.93,22Z"/><circle class="cls-7" cx="70.03" cy="19.74" r="2.1"/><circle class="cls-2" cx="75.13" cy="33.34" r="2.1"/><path class="cls-7" d="M75.83,34.94a2.12,2.12,0,0,1-2.4-1.7,2,2,0,0,1,1.7-2.4,2.08,2.08,0,0,1,.7,4.1Z"/><circle class="cls-2" cx="74.93" cy="47.44" r="2.1"/><circle class="cls-7" cx="75.33" cy="47.14" r="2.1"/><path class="cls-2" d="M68,62a2.08,2.08,0,1,1,2.9-.5A2.16,2.16,0,0,1,68,62Z"/><path class="cls-7" d="M68.53,61.94a2.08,2.08,0,1,1,2.9-.5A2,2,0,0,1,68.53,61.94Z"/><path class="cls-2" d="M57.33,71.14a2.11,2.11,0,1,1,2.9.7A2.11,2.11,0,0,1,57.33,71.14Z"/><circle class="cls-7" cx="59.53" cy="70.24" r="2.1"/><circle class="cls-2" cx="45.93" cy="75.04" r="2.1"/><path class="cls-7" d="M44.23,75.74a2.08,2.08,0,1,1,2.4,1.7A2.12,2.12,0,0,1,44.23,75.74Z"/><path class="cls-2" d="M29.83,74.14a2.06,2.06,0,0,1,4,1,2.06,2.06,0,1,1-4-1Z"/><path class="cls-7" d="M30,74.54a2.06,2.06,0,1,1,1.5,2.5A2,2,0,0,1,30,74.54Z"/><circle class="cls-2" cx="19.03" cy="68.74" r="2.1"/><circle class="cls-7" cx="19.03" cy="69.24" r="2.1"/><path class="cls-2" d="M8.43,56.54a2.11,2.11,0,1,1-.7,2.9A2.11,2.11,0,0,1,8.43,56.54Z"/><path class="cls-7" d="M8.23,57a2.11,2.11,0,1,1-.7,2.9A2.11,2.11,0,0,1,8.23,57Z"/><path class="cls-2" d="M4.43,43a2.12,2.12,0,1,1-1.8,2.4A2.12,2.12,0,0,1,4.43,43Z"/><path class="cls-7" d="M4,43.44a2.12,2.12,0,1,1-1.8,2.4A2.22,2.22,0,0,1,4,43.44Z"/><circle class="cls-2" cx="5.43" cy="31.04" r="2.1"/><circle class="cls-7" cx="4.93" cy="31.34" r="2.1"/><circle class="cls-2" cx="11.43" cy="18.34" r="2.1"/><circle class="cls-7" cx="10.93" cy="18.34" r="2.1"/><path class="cls-2" d="M23.83,7.94a2.13,2.13,0,1,1-2.9-.8A2.23,2.23,0,0,1,23.83,7.94Z"/><circle class="cls-7" cx="21.53" cy="8.84" r="2.1"/><circle class="cls-2" cx="35.33" cy="4.44" r="2.1"/><path class="cls-7" d="M37,3.84a2.07,2.07,0,1,1-4.1.5A2.11,2.11,0,0,1,34.73,2,2,2,0,0,1,37,3.84Z"/><polygon class="cls-4" points="42.13 11.04 42.33 25.54 40.33 10.84 42.13 11.04"/><polygon class="cls-4" points="39.33 55.34 36.93 69.34 38.33 70.14 39.33 55.34"/><path class="cls-4" d="M33.33,11.34s-.3,13.2-.3,14.5a13,13,0,0,1-.5,3l1.7-1.5.3-16.2Z"/><path class="cls-4" d="M31.33,51s1-.2,1.2.5-1.3,15.7-1.3,16.2-.7.8-.7.8l.3-17.3Z"/><path class="cls-4" d="M27.13,14s-2,25.2-1.7,27,.3,12.8.3,13.7-1.3,9.5-1.3,10.2a.81.81,0,0,1-.7.8s.3-11.3.3-12,1.2-12,.7-16.3S26.63,14.54,27.13,14Z"/><path class="cls-4" d="M21.43,18.24s0,4.8-.3,8.8-2,27.5-2,28.3v6.2l-.5-1.5V46.24l1.5-20.3Z"/><path class="cls-4" d="M15.43,24.24s-2.3,20-2.3,21.7v8.7l.8,1,.2-11.7C14.13,43.84,16.63,22.54,15.43,24.24Z"/></svg>