<svg xmlns="http://www.w3.org/2000/svg" viewBox="0 0 216.2 310.35"><defs><style>.cls-1{isolation:isolate;}.cls-2{fill:#f7e4ca;}.cls-3{fill:#eed6b4;}.cls-4{fill:#e4c497;}.cls-5{fill:#f4d9b4;}.cls-6{fill:#6b5c4a;}.cls-7{fill:#d1c2a6;}.cls-11,.cls-8{fill:#443521;mix-blend-mode:multiply;}.cls-8{opacity:0.05;}.cls-9{fill:#77623f;}.cls-10{fill:#9d8665;}.cls-11{opacity:0.08;}.cls-12{fill:#ebb630;}.cls-13{fill:#f5d230;}.cls-14{fill:#625133;}.cls-15{fill:#b81e25;}</style></defs><title>viking_tongue</title><g class="cls-1"><g id="Lag_1" data-name="Lag 1"><path class="cls-2" d="M108.26,263.72c-19.21,0-56.19-2.79-79.16-22.42S13.23,185.7,17.82,173.59s0-25.9,0-49.7c0-50,43.66-67.27,90.44-67.27s90.44,17.32,90.44,67.27c0,23.81-4.59,37.59,0,49.7s11.69,48.08-11.28,67.71S127.47,263.72,108.26,263.72Z"/><path class="cls-3" d="M108.26,107.37C79.16,107.37,98,131.5,98,140.48c0,16.6-12,19.52-13.19,26.75s6.31,10,9.75,9.15c4.26-1.11,7.73,0,13.71,0s9.45-1.11,13.71,0c3.44.9,11-1.8,9.75-9.15s-13.19-10.15-13.19-26.75C118.53,131.5,137.35,107.37,108.26,107.37Z"/><path class="cls-4" d="M118.38,173.33c-2.4,0-4.35,1.26-4.48,2.83,3-.26,5.11-.56,8.06.22a5.33,5.33,0,0,0,.88.14c0-.07,0-.13,0-.2C122.88,174.67,120.87,173.33,118.38,173.33Z"/><path class="cls-3" d="M108.26,231.47c-11,0-31.2-2.58-31.2,7.76,0,13.68,20,17.93,31.2,17.93s31.2-4.25,31.2-17.93C139.46,228.88,119.29,231.47,108.26,231.47Z"/><path class="cls-4" d="M98.13,173.33c2.4,0,4.35,1.26,4.48,2.83-3-.26-5.11-.56-8.06.22a5.34,5.34,0,0,1-.89.14c0-.07,0-.13,0-.2C93.63,174.67,95.65,173.33,98.13,173.33Z"/><path class="cls-5" d="M198.69,173.59c-.1-.27-.18-.55-.27-.83-26.72-4.23-60.79,0-51,41.12,5.85,24.59,24.87,28.12,41.63,25.94C210,219.91,203.18,185.4,198.69,173.59Z"/><path class="cls-5" d="M17.82,173.59c.1-.27.18-.55.27-.83,26.72-4.23,60.79,0,51,41.12C63.25,238.47,44.22,242,27.47,239.81,6.48,219.91,13.33,185.4,17.82,173.59Z"/><path class="cls-6" d="M108.1,310.35C103.94,309,70,294.7,54.74,259.49c0,0-12.1,6.52-12.1,18.91-20.86-10.76-33.82-34-30.88-56.49,0,0-4.77.91-10.8,6.94C-3.67,188.09,9.52,147.51,18.1,117.2l15.4-4.1c-2,21.84-16.61,86.72,9.14,89.33-5.23,13,4.75,28.36,23.73,23.8,4.3,14.67,35.16,19.9,41.74.82,6.58,19.08,37.43,13.85,41.74-.82,19,4.56,29-10.76,23.73-23.8,25.75-2.61,11.09-67.49,9.14-89.33l15.4,4.1c8.58,30.31,21.76,70.89,17.14,111.64-6-6-10.8-6.94-10.8-6.94,2.93,22.5-10,45.74-30.88,56.49,0-12.39-12.1-18.91-12.1-18.91-15.27,35.21-49.2,49.56-53.36,50.86"/><path class="cls-7" d="M166.17,39c12.38,0,23.07-1.52,23.07-13.56s-15.17-15-11.38-21.85c5.66-10.28,37.54,1.72,37.48,32.34-.06,26.88-26.09,35.39-26.09,35.39Z"/><path class="cls-8" d="M189.25,71.33s26-8.52,26.09-35.39C215.39,8.72,190.24-3.74,180.67,1c11.84,6.4,22.41,17.13,24,29.81,2.59,20.82-11.6,23.26-23.1,29.71Z"/><path class="cls-9" d="M156.68,39.22c6.94-4.55,15.78-4.88,28.1,11.68s7.48,21.71,2.19,27S146.33,46,156.68,39.22Z"/><path class="cls-7" d="M50.12,39C37.75,39,27,37.49,27,25.46s15.17-15,11.38-21.85C32.77-6.68.9,5.32,1,35.94,1,62.82,27,71.33,27,71.33Z"/><path class="cls-8" d="M36.55,58C23,56,17.43,50.08,15.08,36.54c-1.56-9-5.79-14.28-10.91-16.35A38.62,38.62,0,0,0,1,35.94C1,62.82,27,71.33,27,71.33Z"/><path class="cls-9" d="M59.61,39.22c-6.93-4.55-15.78-4.88-28.1,11.68S24,72.61,29.32,77.9,70,46,59.61,39.22Z"/><path class="cls-10" d="M18.1,96.36c4.38-29.19,34.22-75,90.05-75s85.67,45.83,90.05,75Z"/><path class="cls-9" d="M108.15,109.29c-54,0-78.09,12.77-88.68,12.77s-14.84-12.26-8.39-21.9c12.7-19,82.11-26,97.07-26s84.37,7,97.07,26c6.45,9.64,2.19,21.9-8.39,21.9S162.16,109.29,108.15,109.29Z"/><path class="cls-11" d="M208.16,109.72c-5.15.88-12,.23-21.16-3.29C152.64,93.26,85,88.73,50.12,98.13c-22.18,6-33.47,11.43-41.95,9.66-1,7.46,3.4,14.27,11.29,14.27,10.58,0,34.67-12.77,88.68-12.77s78.09,12.77,88.68,12.77C204,122.06,208.18,116.37,208.16,109.72Z"/><polygon class="cls-12" points="124.75 116.38 91.54 116.38 97.22 16.07 119.07 16.07 124.75 116.38"/><path class="cls-13" d="M102.06,106.44h12.17L109.68,26h-3.06Z"/><circle class="cls-13" cx="132.93" cy="70.83" r="3.86"/><circle class="cls-13" cx="158.65" cy="74.68" r="3.86"/><circle class="cls-13" cx="183.14" cy="80.58" r="3.86"/><circle class="cls-13" cx="84.32" cy="70.83" r="3.86"/><circle class="cls-13" cx="58.6" cy="74.68" r="3.86"/><circle class="cls-13" cx="34.11" cy="80.58" r="3.86"/><path class="cls-14" d="M70.21,149.59A14.24,14.24,0,1,0,56,163.83,14.24,14.24,0,0,0,70.21,149.59Z"/><path class="cls-14" d="M175.07,149.59a14.24,14.24,0,1,0-14.24,14.24A14.24,14.24,0,0,0,175.07,149.59Z"/><path class="cls-14" d="M108.4,215.11c-30.91,0-42.86-16.3-42.86-24.58a4.1,4.1,0,0,1,4.1-4.1h77.51a4.1,4.1,0,0,1,4.1,4.1C151.26,198.8,139.31,215.11,108.4,215.11Z"/><path class="cls-15" d="M131.25,207.49a4,4,0,0,0-4-4H89.53a4,4,0,0,0-4,4v25.67a22.84,22.84,0,0,0,45.69,0Z"/></g></g></svg>