<svg xmlns="http://www.w3.org/2000/svg" viewBox="0 0 217.93 310.35"><defs><style>.cls-1{isolation:isolate;}.cls-2{fill:#f7e4ca;}.cls-3{fill:#eed6b4;}.cls-4{fill:#e4c497;}.cls-5{fill:#f4d9b4;}.cls-6{fill:#6b5c4a;}.cls-7{fill:#d1c2a6;}.cls-11,.cls-8{fill:#443521;mix-blend-mode:multiply;}.cls-8{opacity:0.05;}.cls-9{fill:#77623f;}.cls-10{fill:#9d8665;}.cls-11{opacity:0.08;}.cls-12{fill:#ebb630;}.cls-13{fill:#f5d230;}.cls-14{fill:#625133;}.cls-15{fill:#6abcd4;}</style></defs><title>viking_sceptical</title><g class="cls-1"><g id="Lag_1" data-name="Lag 1"><path class="cls-2" d="M110,263.72c-19.21,0-56.19-2.79-79.16-22.42S15,185.7,19.55,173.59s0-25.9,0-49.7c0-50,43.66-67.27,90.44-67.27s90.44,17.32,90.44,67.27c0,23.81-4.59,37.59,0,49.7s11.69,48.08-11.28,67.71S129.2,263.72,110,263.72Z"/><path class="cls-3" d="M110,107.37c-29.09,0-10.27,24.14-10.27,33.11,0,16.6-12,19.52-13.19,26.75s6.31,10,9.75,9.15c4.26-1.11,7.73,0,13.71,0s9.45-1.11,13.71,0c3.44.9,11-1.8,9.75-9.15s-13.19-10.15-13.19-26.75C120.26,131.5,139.08,107.37,110,107.37Z"/><path class="cls-4" d="M120.11,173.33c-2.4,0-4.35,1.26-4.48,2.83,3-.26,5.11-.56,8.06.22a5.32,5.32,0,0,0,.88.14,2,2,0,0,0,0-.2C124.61,174.67,122.6,173.33,120.11,173.33Z"/><path class="cls-3" d="M110,231.47c-11,0-31.2-2.58-31.2,7.76,0,13.68,20,17.93,31.2,17.93s31.2-4.25,31.2-17.93C141.19,228.88,121,231.47,110,231.47Z"/><path class="cls-4" d="M99.86,173.33c2.4,0,4.35,1.26,4.48,2.83-3-.26-5.11-.56-8.06.22a5.33,5.33,0,0,1-.89.14c0-.07,0-.13,0-.2C95.36,174.67,97.37,173.33,99.86,173.33Z"/><path class="cls-5" d="M200.42,173.59c-.1-.27-.18-.55-.27-.83-26.72-4.23-60.79,0-51,41.12C155,238.47,174,242,190.77,239.81,211.75,219.91,204.9,185.4,200.42,173.59Z"/><path class="cls-5" d="M19.54,173.59c.1-.27.18-.55.27-.83,26.72-4.23,60.79,0,51,41.12C65,238.47,46,242,29.19,239.81,8.21,219.91,15.06,185.4,19.54,173.59Z"/><path class="cls-6" d="M109.83,310.35c-4.16-1.3-38.09-15.65-53.36-50.86,0,0-12.1,6.52-12.1,18.91-20.86-10.76-33.82-34-30.88-56.49,0,0-4.77.91-10.8,6.94-4.62-40.75,8.56-81.33,17.14-111.64l15.4-4.1c-2,21.84-16.61,86.72,9.14,89.33-5.23,13,4.75,28.36,23.73,23.8,4.3,14.67,35.16,19.9,41.74.82,6.58,19.08,37.43,13.85,41.74-.82,19,4.56,29-10.76,23.73-23.8,25.75-2.61,11.09-67.49,9.14-89.33l15.4,4.1c8.58,30.31,21.76,70.89,17.14,111.64-6-6-10.8-6.94-10.8-6.94,2.93,22.5-10,45.74-30.88,56.49,0-12.39-12.1-18.91-12.1-18.91C147.92,294.7,114,309,109.83,310.35"/><path class="cls-7" d="M167.9,39C180.28,39,191,37.49,191,25.46s-15.17-15-11.38-21.85c5.66-10.28,37.54,1.72,37.48,32.34C217,62.82,191,71.33,191,71.33Z"/><path class="cls-8" d="M191,71.33s26-8.52,26.09-35.39C217.12,8.72,192-3.74,182.4,1c11.84,6.4,22.41,17.13,24,29.81,2.59,20.82-11.6,23.26-23.1,29.71Z"/><path class="cls-9" d="M158.41,39.22c6.94-4.55,15.78-4.88,28.1,11.68s7.48,21.71,2.19,27S148.06,46,158.41,39.22Z"/><path class="cls-7" d="M51.85,39c-12.38,0-23.07-1.52-23.07-13.56s15.17-15,11.38-21.85C34.5-6.68,2.62,5.32,2.68,35.94c.06,26.88,26.09,35.39,26.09,35.39Z"/><path class="cls-8" d="M38.28,58c-13.53-2-19.12-7.94-21.47-21.48-1.56-9-5.79-14.28-10.91-16.35A38.62,38.62,0,0,0,2.68,35.94c.06,26.88,26.09,35.39,26.09,35.39Z"/><path class="cls-9" d="M61.34,39.22c-6.93-4.55-15.78-4.88-28.1,11.68s-7.48,21.71-2.19,27S71.69,46,61.34,39.22Z"/><path class="cls-10" d="M19.82,96.36c4.38-29.19,34.22-75,90.05-75s85.67,45.83,90.05,75Z"/><path class="cls-9" d="M109.87,109.29c-54,0-78.09,12.77-88.68,12.77s-14.84-12.26-8.39-21.9c12.7-19,82.11-26,97.07-26s84.37,7,97.07,26c6.45,9.64,2.19,21.9-8.39,21.9S163.88,109.29,109.87,109.29Z"/><path class="cls-11" d="M209.88,109.72c-5.15.88-12,.23-21.16-3.29-34.36-13.18-102-17.71-136.88-8.3-22.18,6-33.47,11.43-41.95,9.66-1,7.46,3.4,14.27,11.29,14.27,10.58,0,34.67-12.77,88.68-12.77s78.09,12.77,88.68,12.77C205.75,122.06,209.91,116.37,209.88,109.72Z"/><polygon class="cls-12" points="126.48 116.38 93.27 116.38 98.95 16.07 120.8 16.07 126.48 116.38"/><path class="cls-13" d="M103.79,106.44H116L111.4,26h-3.06Z"/><circle class="cls-13" cx="134.66" cy="70.83" r="3.86"/><circle class="cls-13" cx="160.38" cy="74.68" r="3.86"/><circle class="cls-13" cx="184.87" cy="80.58" r="3.86"/><circle class="cls-13" cx="86.05" cy="70.83" r="3.86"/><circle class="cls-13" cx="60.33" cy="74.68" r="3.86"/><circle class="cls-13" cx="35.84" cy="80.58" r="3.86"/><path class="cls-14" d="M68.73,149.8A14.24,14.24,0,1,0,54.49,164,14.24,14.24,0,0,0,68.73,149.8Z"/><path class="cls-14" d="M173.6,149.8A14.24,14.24,0,1,0,159.36,164,14.24,14.24,0,0,0,173.6,149.8Z"/><path class="cls-14" d="M132.27,205.09H87.57a6.15,6.15,0,1,1,0-12.3h44.7a6.15,6.15,0,0,1,0,12.3Z"/><path class="cls-15" d="M48.46,109.82a24.23,24.23,0,1,1-48.46,0C0,87.47,24.23,72.14,24.23,72.14S48.46,87.47,48.46,109.82Z"/></g></g></svg>